<?xml version="1.0" encoding="UTF-8" standalone="no"?>
<!-- Created with Inkscape (http://www.inkscape.org/) -->

<svg
   xmlns:dc="http://purl.org/dc/elements/1.1/"
   xmlns:cc="http://creativecommons.org/ns#"
   xmlns:rdf="http://www.w3.org/1999/02/22-rdf-syntax-ns#"
   xmlns:svg="http://www.w3.org/2000/svg"
   xmlns="http://www.w3.org/2000/svg"
   xmlns:sodipodi="http://sodipodi.sourceforge.net/DTD/sodipodi-0.dtd"
   xmlns:inkscape="http://www.inkscape.org/namespaces/inkscape"
   width="16"
   height="16"
   id="svg3396"
   version="1.1"
   inkscape:version="0.48.3.1 r9886"
   sodipodi:docname="New document 19">
  <defs
     id="defs3398" />
  <sodipodi:namedview
     id="base"
     pagecolor="#ffffff"
     bordercolor="#666666"
     borderopacity="1.0"
     inkscape:pageopacity="0.0"
     inkscape:pageshadow="2"
     inkscape:zoom="15.839192"
     inkscape:cx="19.171389"
     inkscape:cy="12.330448"
     inkscape:document-units="px"
     inkscape:current-layer="layer1"
     showgrid="true"
     fit-margin-top="0"
     fit-margin-left="0"
     fit-margin-right="0"
     fit-margin-bottom="0"
     inkscape:window-width="1280"
     inkscape:window-height="800"
     inkscape:window-x="0"
     inkscape:window-y="-31"
     inkscape:window-maximized="1">
    <inkscape:grid
       type="xygrid"
       id="grid3411"
       empspacing="4"
       visible="true"
       enabled="true"
       snapvisiblegridlinesonly="true" />
  </sodipodi:namedview>
  <metadata
     id="metadata3401">
    <rdf:RDF>
      <cc:Work
         rdf:about="">
        <dc:format>image/svg+xml</dc:format>
        <dc:type
           rdf:resource="http://purl.org/dc/dcmitype/StillImage" />
        <dc:title></dc:title>
      </cc:Work>
    </rdf:RDF>
  </metadata>
  <g
     inkscape:label="Layer 1"
     inkscape:groupmode="layer"
     id="layer1"
     transform="translate(-57.714286,-208.07647)">
    <path
       inkscape:connector-curvature="0"
       d="m 60.714286,211.07647 c -0.5,0 -1,0.5 -1,1 l 0,4 -2,0.5 0,6 c 0,0 0,0.5 0.5,0.5 l 1.5,0 1,-1.5 0,-0.5 10,0 0,0.5 1,1.5 1.5,0 c 0.5,0 0.5,-0.5 0.5,-0.5 l 0,-6 -2,-0.5 0,-4 c 0,-0.5 -0.5,-1 -1,-1 l -10,0 z m 0,1 10,0 0,6 -10,0 0,-6 z m 0,7 0.71875,0 -0.3125,0.1875 -0.78125,0 0.375,-0.1875 z m 1.0625,0 0.71875,0 -0.25,0.1875 -0.75,0 0.28125,-0.1875 z m 1.09375,0 0.6875,0 -0.15625,0.1875 -0.75,0 0.21875,-0.1875 z m 1.0625,0 0.71875,0 -0.09375,0.1875 -0.75,0 0.125,-0.1875 z m 1,0 0.59375,0 0,0.1875 -0.65625,0 0.0625,-0.1875 z m 0.96875,0 0.59375,0 0.0625,0.1875 -0.65625,0 0,-0.1875 z m 0.875,0 0.71875,0 0.125,0.1875 -0.75,0 -0.09375,-0.1875 z m 1.09375,0 0.6875,0 0.21875,0.1875 -0.75,0 -0.15625,-0.1875 z m 1.0625,0 0.71875,0 0.28125,0.1875 -0.75,0 -0.25,-0.1875 z m 1.0625,0 0.71875,0 0.375,0.1875 -0.78125,0 -0.3125,-0.1875 z m -9.90625,0.3125 0.8125,0 -0.4375,0.25 -0.875,0 0.5,-0.25 z m 1.21875,0 0.78125,0 -0.3125,0.25 -0.875,0 0.40625,-0.25 z m 1.1875,0 0.8125,0 -0.21875,0.25 -0.875,0 0.28125,-0.25 z m 1.21875,0 0.78125,0 -0.09375,0.25 -0.875,0 0.1875,-0.25 z m 1.125,0 0.6875,0 -0.03125,0.25 -0.75,0 0.09375,-0.25 z m 1.0625,0 0.6875,0 0.09375,0.25 -0.75,0 -0.03125,-0.25 z m 1.03125,0 0.78125,0 0.1875,0.25 -0.875,0 -0.09375,-0.25 z m 1.1875,0 0.8125,0 0.28125,0.25 -0.875,0 -0.21875,-0.25 z m 1.21875,0 0.78125,0 0.40625,0.25 -0.875,0 -0.3125,-0.25 z m 1.1875,0 0.8125,0 0.5,0.25 -0.875,0 -0.4375,-0.25 z m -11.1875,0.375 0.90625,0 -0.53125,0.3125 -1,0 0.625,-0.3125 z m 1.375,0 0.90625,0 -0.40625,0.3125 -1,0 0.5,-0.3125 z m 1.34375,0 0.9375,0 -0.28125,0.3125 -1,0 0.34375,-0.3125 z m 1.375,0 4.5625,0 0.21875,0.3125 -5,0 0.21875,-0.3125 z m 5,0 0.9375,0 0.34375,0.3125 -1,0 -0.28125,-0.3125 z m 1.375,0 0.90625,0 0.5,0.3125 -1,0 -0.40625,-0.3125 z m 1.375,0 0.90625,0 0.625,0.3125 -1,0 -0.53125,-0.3125 z"
       id="path3037-9" />
  </g>
</svg>
